<svg xmlns="http://www.w3.org/2000/svg" viewBox="0 0 927.85 268.02"><defs><style>.cls-1{fill:#1b2d0a;}.cls-2{fill:#428017;}</style></defs><g id="Calque_2" data-name="Calque 2"><g id="Calque_1-2" data-name="Calque 1"><path d="M275.2,75.89C275.2,64.06,284,56,295.39,56a33.1,33.1,0,0,1,5.33.48v3.3a30.48,30.48,0,0,0-5.06-.48c-9.81,0-16.73,6.87-16.73,16.57s6.92,16.62,16.73,16.62a30.48,30.48,0,0,0,5.06-.48v3.31a34.28,34.28,0,0,1-5.33.48C284,95.82,275.2,87.77,275.2,75.89Z"/><path d="M303.6,81.38c0-8.47,6.13-14.65,14.23-14.65s14.22,6.18,14.22,14.65S325.93,96,317.83,96,303.6,89.74,303.6,81.38Zm14.23,11.29c6.18,0,10.76-4.74,10.76-11.29S324,70,317.83,70s-10.76,4.79-10.76,11.4S311.65,92.67,317.83,92.67Z"/><path d="M347.62,66.73c4.42,0,7.41,2.18,8.74,5.43,1.38-3.25,4.37-5.43,8.84-5.43,6.18,0,9.75,4.36,9.75,11.4V95.39h-3.41V78.29c0-5.17-2.08-8.31-6.5-8.31s-7,3.25-7,8.84V95.39h-3.41V78.82c0-5.59-2.45-8.84-6.92-8.84s-6.56,3.14-6.56,8.31v17.1h-3.41V78.13C337.76,71.09,341.33,66.73,347.62,66.73Z"/><path d="M392,66.73c4.42,0,7.4,2.18,8.74,5.43,1.38-3.25,4.36-5.43,8.84-5.43,6.18,0,9.75,4.36,9.75,11.4V95.39h-3.41V78.29c0-5.17-2.08-8.31-6.5-8.31s-7,3.25-7,8.84V95.39H399V78.82c0-5.59-2.45-8.84-6.92-8.84s-6.56,3.14-6.56,8.31v17.1H382.1V78.13C382.1,71.09,385.67,66.73,392,66.73Z"/><path d="M437,95.92c-6.66,0-10.6-4.31-10.6-11.67v-17h3.41V84.15c0,5.54,2.56,8.52,7.19,8.52s7.2-3,7.2-8.52V67.26h3.41v17C447.65,91.61,443.76,95.92,437,95.92Z"/><path d="M465.39,66.73C472.05,66.73,476,71,476,78.39v17h-3.41V78.5c0-5.54-2.56-8.52-7.2-8.52s-7.19,3-7.19,8.52V95.39h-3.41v-17C454.79,71,458.68,66.73,465.39,66.73Z"/><path d="M481.7,81.38c0-8.58,6.18-14.65,13.91-14.65,4.74,0,8.9,2.29,10.81,5.8V67.26h3.15V95.39h-3.15V90.17c-1.91,3.52-6.07,5.75-10.81,5.75C487.88,95.92,481.7,89.85,481.7,81.38ZM496,92.67c5.7,0,10.5-3.94,10.5-11.29S501.68,70,496,70c-6.23,0-10.81,4.79-10.81,11.4S489.75,92.67,496,92.67Z"/><path d="M527.64,95.92c-6.66,0-10.6-4.31-10.6-11.67v-17h3.41V84.15c0,5.54,2.55,8.52,7.19,8.52s7.19-3,7.19-8.52V67.26h3.41v17C538.24,91.61,534.35,95.92,527.64,95.92Z"/><path d="M546.88,70.46h-3.47v-3.2h3.47V59.32l3.41-1.44v9.38H554v3.2h-3.67V95.39h-3.41Z"/><path d="M557.11,81.43c0-8.15,5.86-14.6,13.91-14.6,6.92,0,13.05,4.69,13.26,14.49H560.41v.16c0,6.29,4.37,11.25,11,11.25a11.39,11.39,0,0,0,10.28-6.08l2.56,1.65a14.57,14.57,0,0,1-12.89,7.57C562.81,95.87,557.11,89.53,557.11,81.43Zm23.66-2.93c-1.07-6-5.23-8.58-9.81-8.58a10.34,10.34,0,0,0-10.28,8.58Zm-5.33-24.13h4.21l-7.46,8.25h-3.47Z"/><path d="M602.19,81.38c0-8.58,6.18-14.65,13.91-14.65a12.23,12.23,0,0,1,10.66,5.48c-.06-2-.11-3.94-.11-6V54.37h3.41v41h-3.15V90.17c-1.91,3.52-6.07,5.75-10.81,5.75C608.37,95.92,602.19,89.85,602.19,81.38Zm14.28,11.29c5.7,0,10.5-3.94,10.5-11.29S622.17,70,616.47,70c-6.23,0-10.81,4.79-10.81,11.4S610.24,92.67,616.47,92.67Z"/><path d="M636.09,81.43c0-8.15,5.86-14.6,13.9-14.6,6.93,0,13.06,4.69,13.27,14.49H639.39v.16c0,6.29,4.37,11.25,11,11.25a11.4,11.4,0,0,0,10.28-6.08l2.56,1.65a14.59,14.59,0,0,1-12.9,7.57C641.79,95.87,636.09,89.53,636.09,81.43Zm23.65-2.93c-1.06-6-5.22-8.58-9.8-8.58a10.34,10.34,0,0,0-10.28,8.58Z"/><path d="M681.17,81.38c0-8.47,6-14.39,14.28-14.39a29.44,29.44,0,0,1,4.53.43v3.2a29.63,29.63,0,0,0-4.21-.38c-6.66,0-11.14,4.58-11.14,11.14s4.48,11.08,11.14,11.08a30.88,30.88,0,0,0,4.21-.37v3.19a24.72,24.72,0,0,1-4.53.48C687.14,95.76,681.17,89.8,681.17,81.38Z"/><path d="M703.07,81.38c0-8.47,6.13-14.65,14.23-14.65s14.22,6.18,14.22,14.65S725.4,96,717.3,96,703.07,89.74,703.07,81.38ZM717.3,92.67c6.18,0,10.76-4.74,10.76-11.29S723.48,70,717.3,70s-10.76,4.79-10.76,11.4S711.12,92.67,717.3,92.67Z"/><path d="M747.09,66.73c4.42,0,7.41,2.18,8.74,5.43,1.38-3.25,4.37-5.43,8.84-5.43,6.18,0,9.75,4.36,9.75,11.4V95.39H771V78.29c0-5.17-2.08-8.31-6.5-8.31s-7,3.25-7,8.84V95.39h-3.41V78.82c0-5.59-2.45-8.84-6.92-8.84s-6.56,3.14-6.56,8.31v17.1h-3.41V78.13C737.23,71.09,740.8,66.73,747.09,66.73Z"/><path d="M791.43,66.73c4.42,0,7.4,2.18,8.74,5.43,1.38-3.25,4.36-5.43,8.84-5.43,6.18,0,9.75,4.36,9.75,11.4V95.39h-3.41V78.29c0-5.17-2.08-8.31-6.5-8.31s-7,3.25-7,8.84V95.39h-3.41V78.82c0-5.59-2.45-8.84-6.92-8.84S785,73.12,785,78.29v17.1h-3.41V78.13C781.57,71.09,785.14,66.73,791.43,66.73Z"/><path d="M836.51,95.92c-6.66,0-10.6-4.31-10.6-11.67v-17h3.41V84.15c0,5.54,2.56,8.52,7.19,8.52s7.2-3,7.2-8.52V67.26h3.41v17C847.12,91.61,843.23,95.92,836.51,95.92Z"/><path d="M864.86,66.73c6.66,0,10.61,4.31,10.61,11.66v17h-3.41V78.5c0-5.54-2.56-8.52-7.2-8.52s-7.19,3-7.19,8.52V95.39h-3.41v-17C854.26,71,858.15,66.73,864.86,66.73Z"/><path d="M881.17,81.43c0-8.15,5.86-14.6,13.91-14.6,6.93,0,13,4.69,13.27,14.49H884.48v.16c0,6.29,4.37,11.25,11,11.25a11.38,11.38,0,0,0,10.28-6.08l2.56,1.65a14.57,14.57,0,0,1-12.89,7.57C886.87,95.87,881.17,89.53,881.17,81.43Zm23.66-2.93c-1.06-6-5.22-8.58-9.8-8.58a10.36,10.36,0,0,0-10.29,8.58Z"/><path d="M912.83,95.39V92.3c2.13.21,4.1.32,5.27.32,4.21,0,6.29-1.44,6.29-4.42,0-2.13-1.17-3.57-4.16-5.44l-1.91-1.22c-3.89-2.4-5.65-4.69-5.65-7.73,0-4.15,3.3-6.82,8.74-6.82,1.12,0,2.71.11,4.21.27v2.88c-1.6-.16-2.83-.22-3.68-.22-3.84,0-5.92,1.44-5.92,3.89,0,1.87,1.28,3.3,4.32,5.17l2,1.28c3.83,2.45,5.48,4.69,5.48,7.88,0,4.69-3.57,7.57-9.64,7.57C916.93,95.71,914.91,95.55,912.83,95.39Z"/><path d="M276.41,174.6c0-19.45,14.44-32.82,31.51-32.82,6.21,0,12.18,1.79,16.59,5.37-.23-4.9-.35-9.91-.35-15.16V114H343v92.28H326.3l-.11-5.73c-4.3,4.53-11.23,6.92-18.27,6.92C290.85,207.43,276.41,194.06,276.41,174.6Zm34,15.64c8.59,0,14.92-6.09,14.92-15.64S319,159,310.43,159s-15.16,6.08-15.16,15.63S301.71,190.24,310.43,190.24Z"/><path d="M357,174.84c0-19.93,14.33-33.42,32.71-33.42,17.31,0,33.19,11.81,30.56,38.32H374.77c1.79,7.52,7.88,12,16.23,12,6.69,0,12.42-2.86,17.07-8.71l12.18,10.15c-7,9.31-17.07,14.56-29.6,14.56C370.47,207.79,357,194.18,357,174.84Zm45.84-8.12c-1.43-6.44-6.2-10-13.25-10s-12.53,3.94-14.56,10Z"/><path d="M485.79,172l-28.06-53.6h22.33l15.75,32.35,15.64-32.35h20.77L505.6,172v34.26H485.79Z"/><path d="M529.48,174.84c0-19.93,14.32-33.42,32.71-33.42,17.31,0,33.18,11.81,30.56,38.32H547.27c1.79,7.52,7.87,12,16.23,12,6.68,0,12.41-2.86,17.07-8.71l12.18,10.15c-7,9.31-17.07,14.56-29.61,14.56C543,207.79,529.48,194.18,529.48,174.84Zm45.84-8.12c-1.43-6.44-6.21-10-13.25-10s-12.54,3.94-14.57,10Z"/><path d="M634.41,141.42c17.19,0,27.69,10.5,27.69,27.45v37.37H643.24V169.59c0-6.8-3.22-10.62-8.83-10.62s-8.84,3.82-8.84,10.62v36.65H606.71V168.87C606.71,151.92,617.22,141.42,634.41,141.42Z"/><path d="M705.08,141.42c17.19,0,27.69,10.5,27.69,27.45v37.37H713.91V169.59c0-6.8-3.22-10.62-8.83-10.62s-8.84,3.82-8.84,10.62v36.65H677.38V168.87C677.38,151.92,687.89,141.42,705.08,141.42Z"/><path d="M746,174.84c0-19.93,14.33-33.42,32.71-33.42,17.31,0,33.19,11.81,30.56,38.32H763.81c1.79,7.52,7.88,12,16.23,12,6.69,0,12.42-2.86,17.07-8.71l12.18,10.15c-7,9.31-17.07,14.56-29.61,14.56C759.51,207.79,746,194.18,746,174.84Zm45.84-8.12c-1.43-6.44-6.21-10-13.25-10s-12.53,3.94-14.56,10Z"/><path class="cls-1" d="M29,53a4.07,4.07,0,0,1,.28-6.47L90.64,7.45a46.48,46.48,0,0,1,50.47,0l61.41,39.09a4.07,4.07,0,0,1,.29,6.47,277.73,277.73,0,0,0-48.28,49.13,293.15,293.15,0,0,0-35.51,60,3.36,3.36,0,0,1-6.28,0,293.61,293.61,0,0,0-35.51-60A277.73,277.73,0,0,0,29,53Z"/><path d="M0,182.77c0,18.51,9,35.6,23.49,44.86l62.62,39.85c2.47,1.58,5.52-.61,5.23-3.74-8.78-92.22-60.55-145.36-85.7-166C3.33,95.79.05,97.6.05,100.77Z"/><path class="cls-2" d="M231.71,100.83c0-3.18-3.28-5-5.59-3.08a232.55,232.55,0,0,0-37.26,39.08c-27.78,36.78-44,79.38-48.46,126.92-.29,3.13,2.76,5.32,5.23,3.75l62.64-39.87c14.53-9.26,23.49-26.35,23.49-44.86Z"/></g></g></svg>